<svg xmlns="http://www.w3.org/2000/svg" width="900" height="300" viewBox="0 0 900 300">
  <defs>
    <linearGradient id="bgGrad" x1="0" y1="0" x2="1" y2="1">
      <stop offset="0%" stop-color="#060606"/>
      <stop offset="30%" stop-color="#0e0e0e"/>
      <stop offset="70%" stop-color="#121212"/>
      <stop offset="100%" stop-color="#080808"/>
    </linearGradient>
    <linearGradient id="topFace" x1="0" y1="0" x2="0" y2="1">
      <stop offset="0%" stop-color="#6a6a6a"/>
      <stop offset="100%" stop-color="#505050"/>
    </linearGradient>
    <linearGradient id="leftFace" x1="1" y1="0" x2="0" y2="1">
      <stop offset="0%" stop-color="#4a4a4a"/>
      <stop offset="100%" stop-color="#2a2a2a"/>
    </linearGradient>
    <linearGradient id="rightFace" x1="0" y1="0" x2="1" y2="1">
      <stop offset="0%" stop-color="#f0920e"/>
      <stop offset="100%" stop-color="#c47009"/>
    </linearGradient>
    <linearGradient id="topFaceLight" x1="0" y1="0" x2="0" y2="1">
      <stop offset="0%" stop-color="#787878"/>
      <stop offset="100%" stop-color="#5a5a5a"/>
    </linearGradient>
    <linearGradient id="leftFaceLight" x1="1" y1="0" x2="0" y2="1">
      <stop offset="0%" stop-color="#555555"/>
      <stop offset="100%" stop-color="#353535"/>
    </linearGradient>
    <linearGradient id="rightFaceLight" x1="0" y1="0" x2="1" y2="1">
      <stop offset="0%" stop-color="#f5a623"/>
      <stop offset="100%" stop-color="#d4880c"/>
    </linearGradient>
    <linearGradient id="orangeBar" x1="0" y1="0" x2="0" y2="1">
      <stop offset="0%" stop-color="#f59e0b"/>
      <stop offset="100%" stop-color="#d97706"/>
    </linearGradient>
    <pattern id="grid" width="50" height="50" patternUnits="userSpaceOnUse">
      <path d="M 50 0 L 0 0 0 50" fill="none" stroke="#ffffff" stroke-opacity="0.02" stroke-width="0.5"/>
    </pattern>
    <filter id="boxGlow">
      <feDropShadow dx="0" dy="0" stdDeviation="6" flood-color="#e8750a" flood-opacity="0.3"/>
    </filter>
    <filter id="orangeShadow">
      <feDropShadow dx="0" dy="0" stdDeviation="15" flood-color="#e8750a" flood-opacity="0.15"/>
    </filter>
  </defs>

  <!-- Background -->
  <rect width="900" height="300" fill="url(#bgGrad)"/>
  <rect width="900" height="300" fill="url(#grid)"/>
  
  <!-- Ambient glow -->
  <ellipse cx="450" cy="150" rx="350" ry="130" fill="#e8750a" opacity="0.035"/>
  <ellipse cx="200" cy="140" rx="200" ry="150" fill="#e8750a" opacity="0.02"/>
  <ellipse cx="700" cy="140" rx="200" ry="150" fill="#e8750a" opacity="0.02"/>

  <!-- 3D BOX CLUSTER - LEFT -->
  <g transform="translate(55, 50)" opacity="0.5" filter="url(#boxGlow)">
    <polygon points="50,0 100,25 50,50 0,25" fill="url(#topFaceLight)"/>
    <polygon points="0,25 50,50 50,115 0,90" fill="url(#leftFaceLight)"/>
    <polygon points="50,50 100,25 100,90 50,115" fill="url(#rightFaceLight)"/>
  </g>
  <g transform="translate(85, 18)" opacity="0.4">
    <polygon points="35,0 70,17 35,35 0,17" fill="url(#topFace)"/>
    <polygon points="0,17 35,35 35,75 0,57" fill="url(#leftFace)"/>
    <polygon points="35,35 70,17 70,57 35,75" fill="url(#rightFace)"/>
  </g>
  <g transform="translate(25, 170)" opacity="0.3">
    <polygon points="22,0 44,11 22,22 0,11" fill="url(#topFace)"/>
    <polygon points="0,11 22,22 22,50 0,39" fill="url(#leftFace)"/>
    <polygon points="22,22 44,11 44,39 22,50" fill="url(#rightFace)"/>
  </g>
  <g transform="translate(160, 190)" opacity="0.2">
    <polygon points="14,0 28,7 14,14 0,7" fill="url(#topFace)"/>
    <polygon points="0,7 14,14 14,32 0,25" fill="url(#leftFace)"/>
    <polygon points="14,14 28,7 28,25 14,32" fill="url(#rightFace)"/>
  </g>
  <g transform="translate(130, 120)" opacity="0.25">
    <polygon points="18,0 36,9 18,18 0,9" fill="url(#topFace)"/>
    <polygon points="0,9 18,18 18,42 0,33" fill="url(#leftFace)"/>
    <polygon points="18,18 36,9 36,33 18,42" fill="url(#rightFace)"/>
  </g>

  <!-- 3D BOX CLUSTER - RIGHT -->
  <g transform="translate(720, 30)" opacity="0.5" filter="url(#boxGlow)">
    <polygon points="55,0 110,27 55,55 0,27" fill="url(#topFaceLight)"/>
    <polygon points="0,27 55,55 55,125 0,97" fill="url(#leftFaceLight)"/>
    <polygon points="55,55 110,27 110,97 55,125" fill="url(#rightFaceLight)"/>
  </g>
  <g transform="translate(745, -5)" opacity="0.4">
    <polygon points="38,0 76,19 38,38 0,19" fill="url(#topFace)"/>
    <polygon points="0,19 38,38 38,78 0,59" fill="url(#leftFace)"/>
    <polygon points="38,38 76,19 76,59 38,78" fill="url(#rightFace)"/>
  </g>
  <g transform="translate(830, 170)" opacity="0.3">
    <polygon points="20,0 40,10 20,20 0,10" fill="url(#topFace)"/>
    <polygon points="0,10 20,20 20,46 0,36" fill="url(#leftFace)"/>
    <polygon points="20,20 40,10 40,36 20,46" fill="url(#rightFace)"/>
  </g>
  <g transform="translate(700, 190)" opacity="0.2">
    <polygon points="16,0 32,8 16,16 0,8" fill="url(#topFace)"/>
    <polygon points="0,8 16,16 16,36 0,28" fill="url(#leftFace)"/>
    <polygon points="16,16 32,8 32,28 16,36" fill="url(#rightFace)"/>
  </g>
  <g transform="translate(680, 110)" opacity="0.25">
    <polygon points="18,0 36,9 18,18 0,9" fill="url(#topFace)"/>
    <polygon points="0,9 18,18 18,42 0,33" fill="url(#leftFace)"/>
    <polygon points="18,18 36,9 36,33 18,42" fill="url(#rightFace)"/>
  </g>

  <!-- Floating particles -->
  <circle cx="190" cy="80" r="1.5" fill="#e8750a" opacity="0.4"/>
  <circle cx="250" cy="240" r="1" fill="#e8750a" opacity="0.3"/>
  <circle cx="650" cy="70" r="1.5" fill="#e8750a" opacity="0.4"/>
  <circle cx="710" cy="250" r="1" fill="#e8750a" opacity="0.3"/>
  <circle cx="450" cy="30" r="1" fill="#ffffff" opacity="0.15"/>
  <circle cx="350" cy="260" r="1" fill="#ffffff" opacity="0.1"/>
  <circle cx="550" cy="270" r="1" fill="#ffffff" opacity="0.1"/>

  <!-- Tagline -->
  <g filter="url(#orangeShadow)">
    <text x="450" y="250" text-anchor="middle" font-family="'Segoe UI', 'Helvetica Neue', Arial, sans-serif" font-size="17" fill="#cccccc" letter-spacing="3" font-weight="400" font-style="italic">
      Crafting Excellence in Every Package
    </text>
  </g>

  <!-- Bottom accent bar -->
  <rect x="395" y="268" width="110" height="2.5" rx="1.2" fill="url(#orangeBar)" opacity="0.7"/>
</svg>
